<svg xmlns="http://www.w3.org/2000/svg" xmlns:xlink="http://www.w3.org/1999/xlink" viewBox="5 15 280 280" width="400" height="400">
<style type="text/css">
	.st0{fill:#DC0D15;}
	.st1{fill:#DD1219;}
	.st2{fill-rule:evenodd;clip-rule:evenodd;fill:#DC0D15;}
	.st3{fill:#DB0D15;}
	.st4{fill-rule:evenodd;clip-rule:evenodd;fill:#DB0D15;}
</style>
<g>
	<g>
		<g>
			<g>
				<path class="st3" d="M234.9,248.7h-4.7c-0.9,0-1.3-1.2-0.6-1.8l1.3-1.2c1.1-1,2.6-1.5,4-1.5h4.7c0.9,0,1.3,1.2,0.6,1.8l-1.3,1.2 C237.8,248.1,236.4,248.7,234.9,248.7"/>
				<path class="st3" d="M241.1,242.1l-4.7,0.3c-0.9,0.1-1.4-1.1-0.7-1.8l1.3-1.3c1.1-1.1,2.5-1.7,3.9-1.8l4.7-0.3 c0.9-0.1,1.4,1.1,0.7,1.8l-1.3,1.3C243.9,241.4,242.5,242,241.1,242.1"/>
				<path class="st3" d="M246.7,235.1l-4.6,0.7c-0.9,0.1-1.4-1-0.8-1.7l1.2-1.3c1-1.1,2.3-1.9,3.8-2.1l4.6-0.7 c0.9-0.1,1.4,1,0.8,1.7l-1.2,1.3C249.5,234.2,248.2,234.9,246.7,235.1"/>
				<path class="st3" d="M251.9,227.8l-4.6,1c-0.9,0.2-1.5-0.9-1-1.6l1.1-1.4c0.9-1.2,2.2-2,3.6-2.3l4.6-1c0.9-0.2,1.5,0.9,1,1.7 l-1.1,1.4C254.6,226.6,253.3,227.4,251.9,227.8"/>
				<path class="st3" d="M256.5,220l-4.5,1.3c-0.9,0.2-1.6-0.8-1.1-1.6l1-1.5c0.8-1.3,2.1-2.2,3.5-2.6l4.5-1.3 c0.9-0.3,1.6,0.8,1.1,1.6l-1,1.5C259.1,218.7,257.9,219.6,256.5,220"/>
				<path class="st3" d="M260.6,212l-4.4,1.6c-0.8,0.3-1.6-0.7-1.2-1.5l0.9-1.5c0.7-1.3,1.9-2.3,3.3-2.8l4.4-1.6 c0.8-0.3,1.6,0.7,1.2,1.5l-0.9,1.6C263.1,210.5,261.9,211.5,260.6,212"/>
				<path class="st3" d="M264.1,203.7l-4.3,1.9c-0.8,0.4-1.7-0.6-1.3-1.4l0.8-1.6c0.6-1.4,1.7-2.4,3.1-3l4.3-1.9 c0.8-0.4,1.7,0.6,1.3,1.4l-0.8,1.6C266.5,202.1,265.4,203.2,264.1,203.7"/>
				<path class="st3" d="M267,195.3l-4.1,2.2c-0.8,0.4-1.7-0.5-1.4-1.3l0.6-1.7c0.6-1.4,1.6-2.6,2.9-3.3l4.1-2.2 c0.8-0.4,1.7,0.5,1.4,1.3l-0.6,1.7C269.3,193.4,268.3,194.6,267,195.3"/>
				<path class="st3" d="M269.3,186.6l-4,2.5c-0.8,0.5-1.7-0.3-1.5-1.2l0.5-1.7c0.5-1.4,1.4-2.7,2.6-3.4l4-2.5 c0.8-0.5,1.7,0.3,1.5,1.2l-0.5,1.7C271.5,184.6,270.6,185.8,269.3,186.6"/>
				<path class="st3" d="M271,177.7l-3.8,2.8c-0.7,0.5-1.8-0.2-1.6-1.1l0.4-1.7c0.3-1.5,1.2-2.8,2.4-3.6l3.8-2.8 c0.7-0.5,1.8,0.2,1.6,1.1l-0.4,1.7C273,175.6,272.2,176.9,271,177.7"/>
				<path class="st3" d="M272.1,168.8l-3.6,3c-0.7,0.6-1.8-0.1-1.6-1l0.3-1.8c0.2-1.5,1-2.8,2.1-3.8l3.6-3c0.7-0.6,1.8,0.1,1.6,1 l-0.3,1.8C274,166.6,273.2,167.9,272.1,168.8"/>
				<path class="st3" d="M272.6,159.9l-3.4,3.3c-0.7,0.6-1.8,0-1.7-0.9l0.2-1.8c0.1-1.5,0.8-2.9,1.8-3.9l3.4-3.3 c0.6-0.6,1.8,0,1.7,0.9l-0.2,1.8C274.3,157.4,273.6,158.8,272.6,159.9"/>
				<path class="st3" d="M272.4,150.9l-3.1,3.5c-0.6,0.7-1.8,0.2-1.7-0.8l0-1.8c0-1.5,0.6-2.9,1.6-4l3.1-3.5 c0.6-0.7,1.8-0.2,1.8,0.8l0,1.8C273.9,148.4,273.4,149.8,272.4,150.9"/>
				<path class="st3" d="M271.6,141.9l-2.9,3.7c-0.6,0.7-1.8,0.3-1.8-0.6l-0.1-1.8c-0.1-1.5,0.4-3,1.3-4.1l2.9-3.7 c0.6-0.7,1.7-0.3,1.8,0.6l0.1,1.8C273,139.3,272.5,140.8,271.6,141.9"/>
				<path class="st3" d="M270.2,133l-2.6,3.9c-0.5,0.7-1.7,0.4-1.8-0.5l-0.2-1.8c-0.2-1.5,0.2-3,1-4.2l2.6-3.9 c0.5-0.7,1.7-0.4,1.8,0.5l0.2,1.8C271.4,130.3,271,131.8,270.2,133"/>
				<path class="st3" d="M268.1,124.3l-2.3,4c-0.5,0.8-1.7,0.5-1.9-0.4l-0.3-1.7c-0.3-1.5,0-3,0.7-4.3l2.3-4 c0.4-0.8,1.7-0.5,1.9,0.4l0.3,1.7C269.1,121.5,268.9,123,268.1,124.3"/>
				<path class="st3" d="M265.5,115.7l-2.1,4.2c-0.4,0.8-1.7,0.6-1.9-0.3l-0.5-1.7c-0.4-1.5-0.3-3,0.4-4.3l2.1-4.2 c0.4-0.8,1.7-0.6,1.9,0.3l0.5,1.7C266.3,112.9,266.2,114.4,265.5,115.7"/>
				<path class="st3" d="M262.3,107.3l-1.8,4.3c-0.3,0.8-1.6,0.7-1.9-0.1l-0.6-1.7c-0.5-1.4-0.5-3,0.1-4.3l1.8-4.3 c0.3-0.8,1.6-0.7,1.9,0.1l0.6,1.7C262.9,104.4,262.8,105.9,262.3,107.3"/>
				<path class="st3" d="M258.5,99.2l-1.5,4.5c-0.3,0.9-1.5,0.9-1.9,0l-0.7-1.6c-0.6-1.4-0.7-2.9-0.2-4.3l1.4-4.5 c0.3-0.9,1.6-0.9,1.9,0l0.7,1.6C258.9,96.3,258.9,97.8,258.5,99.2"/>
				<path class="st3" d="M254.1,91.3l-1.1,4.5c-0.2,0.9-1.5,1-1.9,0.1l-0.8-1.6c-0.7-1.3-0.9-2.9-0.5-4.3l1.1-4.5 c0.2-0.9,1.5-1,1.9-0.1l0.8,1.6C254.3,88.4,254.5,89.9,254.1,91.3"/>
				<path class="st3" d="M249.2,83.8l-0.8,4.6c-0.2,0.9-1.4,1.1-1.9,0.3l-0.9-1.5c-0.8-1.3-1.1-2.8-0.8-4.2l0.8-4.6 c0.2-0.9,1.4-1.1,1.9-0.3l0.9,1.5C249.2,80.8,249.5,82.3,249.2,83.8"/>
				<path class="st3" d="M243.8,76.6l-0.5,4.7c-0.1,0.9-1.3,1.2-1.9,0.4l-1-1.5c-0.9-1.2-1.3-2.7-1.1-4.2l0.5-4.7 c0.1-0.9,1.3-1.2,1.9-0.4l1,1.5C243.6,73.7,243.9,75.1,243.8,76.6"/>
				<path class="st3" d="M237.9,69.8l-0.2,4.7c0,0.9-1.3,1.3-1.8,0.5l-1.1-1.4c-1-1.2-1.4-2.6-1.4-4.1l0.2-4.7 c0-0.9,1.3-1.3,1.8-0.5l1.1,1.4C237.4,66.9,237.9,68.4,237.9,69.8"/>
				<path class="st3" d="M231.5,63.5l0.2,4.7c0,0.9-1.2,1.3-1.8,0.7l-1.2-1.3c-1-1.1-1.6-2.5-1.7-4l-0.2-4.7c0-0.9,1.2-1.3,1.8-0.7 l1.2,1.3C230.9,60.6,231.5,62,231.5,63.5"/>
				<path class="st3" d="M224.7,57.6l0.5,4.7c0.1,0.9-1.1,1.4-1.7,0.8l-1.3-1.2c-1.1-1-1.8-2.4-1.9-3.9l-0.5-4.7 c-0.1-0.9,1.1-1.4,1.7-0.8l1.3,1.2C223.9,54.8,224.6,56.1,224.7,57.6"/>
				<path class="st3" d="M217.5,52.2l0.8,4.6c0.2,0.9-1,1.5-1.7,0.9l-1.4-1.1c-1.2-1-2-2.3-2.2-3.7l-0.8-4.6c-0.2-0.9,1-1.5,1.7-0.9 l1.4,1.1C216.5,49.4,217.3,50.8,217.5,52.2"/>
				<path class="st3" d="M210,47.3l1.1,4.5c0.2,0.9-0.9,1.6-1.6,1l-1.4-1c-1.2-0.9-2.1-2.1-2.5-3.6l-1.1-4.5c-0.2-0.9,0.9-1.6,1.6-1 l1.4,1C208.8,44.6,209.6,45.9,210,47.3"/>
				<path class="st3" d="M202.1,43l1.4,4.5c0.3,0.9-0.8,1.6-1.5,1.1l-1.5-0.9c-1.3-0.8-2.3-2-2.7-3.4l-1.4-4.5 c-0.3-0.9,0.8-1.6,1.5-1.1l1.5,0.9C200.7,40.4,201.7,41.6,202.1,43"/>
				<path class="st3" d="M194,39.2l1.8,4.3c0.3,0.8-0.6,1.7-1.5,1.2l-1.6-0.8c-1.4-0.7-2.4-1.8-2.9-3.2l-1.8-4.3 c-0.3-0.8,0.6-1.7,1.5-1.2L191,36C192.4,36.7,193.4,37.8,194,39.2"/>
				<path class="st3" d="M185.6,36l2.1,4.2c0.4,0.8-0.5,1.7-1.4,1.3l-1.6-0.7c-1.4-0.6-2.5-1.6-3.2-3l-2.1-4.2 c-0.4-0.8,0.5-1.7,1.4-1.3l1.6,0.7C183.8,33.6,184.9,34.6,185.6,36"/>
				<path class="st3" d="M177,33.4l2.3,4.1c0.4,0.8-0.4,1.7-1.3,1.4l-1.7-0.6c-1.4-0.5-2.6-1.5-3.4-2.7l-2.3-4.1 c-0.5-0.8,0.4-1.7,1.3-1.4l1.7,0.6C175.1,31.1,176.2,32.1,177,33.4"/>
				<path class="st3" d="M168.2,31.3l2.6,3.9c0.5,0.8-0.3,1.8-1.2,1.5l-1.7-0.5c-1.5-0.4-2.7-1.3-3.5-2.5l-2.6-3.9 c-0.5-0.7,0.3-1.8,1.2-1.5l1.7,0.5C166.2,29.2,167.4,30.1,168.2,31.3"/>
				<path class="st3" d="M159.3,29.9l2.9,3.7c0.6,0.7-0.2,1.8-1.1,1.6l-1.7-0.3c-1.5-0.3-2.8-1.1-3.7-2.2l-2.9-3.7 c-0.6-0.7,0.2-1.8,1.1-1.6l1.7,0.3C157.1,28,158.4,28.8,159.3,29.9"/>
				<path class="st3" d="M150.4,29.2l3.1,3.5c0.6,0.7,0,1.8-1,1.7l-1.8-0.2c-1.5-0.2-2.9-0.9-3.9-2l-3.1-3.5c-0.6-0.7,0-1.8,1-1.7 l1.8,0.2C148,27.4,149.4,28.1,150.4,29.2"/>
				<path class="st3" d="M141.4,29l3.4,3.3c0.6,0.6,0.1,1.8-0.8,1.7l-1.8-0.1c-1.5-0.1-2.9-0.7-4-1.7l-3.4-3.3 c-0.6-0.6-0.1-1.8,0.8-1.7l1.8,0.1C138.9,27.4,140.3,28,141.4,29"/>
				<path class="st3" d="M132.4,29.5l3.6,3c0.7,0.6,0.2,1.8-0.7,1.8l-1.8,0c-1.5,0-3-0.5-4.1-1.4l-3.6-3c-0.7-0.6-0.2-1.8,0.7-1.8 l1.8,0C129.9,28.1,131.3,28.6,132.4,29.5"/>
				<path class="st3" d="M123.5,30.6l3.8,2.7c0.7,0.5,0.3,1.7-0.6,1.8l-1.8,0.1c-1.5,0.1-3-0.3-4.2-1.1l-3.8-2.8 c-0.7-0.5-0.3-1.7,0.6-1.8l1.8-0.1C120.8,29.3,122.3,29.7,123.5,30.6"/>
				<path class="st3" d="M114.7,32.3l4,2.5c0.8,0.5,0.5,1.7-0.5,1.9l-1.8,0.3c-1.5,0.2-3-0.1-4.2-0.8l-4-2.5 c-0.8-0.5-0.5-1.7,0.5-1.9l1.8-0.3C111.9,31.2,113.4,31.5,114.7,32.3"/>
				<path class="st3" d="M106,34.7l4.1,2.2c0.8,0.4,0.6,1.7-0.3,1.9l-1.7,0.4c-1.5,0.3-3,0.1-4.3-0.6l-4.1-2.2 c-0.8-0.4-0.6-1.7,0.3-1.9l1.7-0.4C103.2,33.8,104.7,34,106,34.7"/>
				<path class="st3" d="M97.5,37.6l4.3,1.9c0.8,0.4,0.7,1.6-0.2,1.9l-1.7,0.5c-1.4,0.4-3,0.4-4.3-0.2l-4.3-1.9 c-0.8-0.4-0.7-1.6,0.2-1.9l1.7-0.5C94.6,36.9,96.2,37,97.5,37.6"/>
				<path class="st3" d="M89.2,41.1l4.4,1.6c0.8,0.3,0.8,1.6-0.1,1.9l-1.7,0.6c-1.4,0.5-2.9,0.6-4.3,0.1l-4.4-1.6 c-0.8-0.3-0.8-1.6,0.1-1.9l1.7-0.6C86.3,40.6,87.9,40.6,89.2,41.1"/>
				<path class="st3" d="M81.2,45.2l4.5,1.3c0.9,0.2,0.9,1.5,0.1,1.9l-1.6,0.7c-1.4,0.6-2.9,0.8-4.3,0.4l-4.5-1.3 c-0.9-0.2-0.9-1.5-0.1-1.9l1.6-0.7C78.3,44.9,79.8,44.8,81.2,45.2"/>
				<path class="st3" d="M73.5,49.8l4.6,1c0.9,0.2,1,1.5,0.2,1.9l-1.6,0.9c-1.3,0.7-2.8,1-4.3,0.7l-4.6-1c-0.9-0.2-1-1.5-0.2-1.9 l1.6-0.9C70.6,49.8,72.1,49.5,73.5,49.8"/>
				<path class="st3" d="M66.2,55l4.6,0.7c0.9,0.1,1.1,1.4,0.3,1.9l-1.5,1c-1.3,0.8-2.8,1.2-4.2,1l-4.6-0.6 c-0.9-0.1-1.1-1.4-0.3-1.9l1.5-1C63.2,55.1,64.7,54.8,66.2,55"/>
				<path class="st3" d="M59.2,60.7l4.7,0.3c0.9,0.1,1.2,1.3,0.5,1.9l-1.4,1.1c-1.2,0.9-2.7,1.3-4.1,1.3l-4.7-0.3 c-0.9-0.1-1.2-1.3-0.5-1.9l1.4-1.1C56.3,61,57.7,60.6,59.2,60.7"/>
				<path class="st3" d="M52.6,66.8h4.7c0.9,0,1.3,1.2,0.6,1.8l-1.3,1.2c-1.1,1-2.6,1.5-4,1.5h-4.7c-0.9,0-1.3-1.2-0.6-1.8l1.3-1.2 C49.7,67.3,51.1,66.8,52.6,66.8"/>
				<path class="st3" d="M46.5,73.4l4.7-0.3c0.9-0.1,1.4,1.1,0.7,1.8l-1.3,1.3c-1.1,1.1-2.5,1.7-3.9,1.8L42,78.2 c-0.9,0.1-1.4-1.1-0.7-1.8l1.3-1.3C43.6,74.1,45,73.5,46.5,73.4"/>
				<path class="st3" d="M40.9,80.4l4.6-0.6c0.9-0.1,1.4,1,0.8,1.7l-1.2,1.3c-1,1.1-2.3,1.9-3.8,2.1l-4.6,0.7 c-0.9,0.1-1.5-1-0.9-1.7l1.2-1.3C38.1,81.3,39.4,80.6,40.9,80.4"/>
				<path class="st3" d="M35.7,87.7l4.6-1c0.9-0.2,1.5,0.9,1,1.7l-1.1,1.4c-0.9,1.2-2.2,2-3.6,2.3l-4.6,1c-0.9,0.2-1.5-0.9-1-1.6 l1.1-1.4C33,88.9,34.3,88,35.7,87.7"/>
				<path class="st3" d="M31.1,95.4l4.5-1.3c0.9-0.2,1.6,0.8,1.1,1.6l-1,1.5c-0.8,1.3-2.1,2.2-3.5,2.6l-4.5,1.3 c-0.9,0.2-1.6-0.8-1.1-1.6l1-1.5C28.4,96.8,29.7,95.8,31.1,95.4"/>
				<path class="st3" d="M27,103.4l4.4-1.6c0.8-0.3,1.6,0.7,1.2,1.5l-0.9,1.6c-0.7,1.3-1.9,2.3-3.3,2.8l-4.4,1.6 c-0.8,0.3-1.6-0.7-1.2-1.5l0.9-1.6C24.5,104.9,25.6,104,27,103.4"/>
				<path class="st3" d="M23.5,111.7l4.3-1.9c0.8-0.4,1.7,0.6,1.3,1.4l-0.8,1.6c-0.6,1.4-1.7,2.4-3.1,3l-4.3,1.9 c-0.8,0.4-1.7-0.6-1.3-1.4l0.8-1.6C21.1,113.4,22.2,112.3,23.5,111.7"/>
				<path class="st3" d="M20.6,120.2l4.1-2.2c0.8-0.4,1.7,0.5,1.4,1.3l-0.6,1.7c-0.5,1.4-1.6,2.6-2.9,3.2l-4.1,2.2 c-0.8,0.4-1.7-0.5-1.4-1.3l0.6-1.7C18.3,122.1,19.3,120.9,20.6,120.2"/>
				<path class="st3" d="M18.3,128.9l4-2.5c0.8-0.5,1.7,0.3,1.5,1.2l-0.5,1.7c-0.5,1.4-1.4,2.7-2.6,3.4l-4,2.5 c-0.8,0.5-1.7-0.3-1.5-1.2l0.5-1.7C16.1,130.9,17,129.7,18.3,128.9"/>
				<path class="st3" d="M16.6,137.7l3.8-2.8c0.7-0.5,1.8,0.2,1.6,1.1l-0.4,1.7c-0.3,1.5-1.2,2.8-2.4,3.6l-3.8,2.7 c-0.7,0.5-1.8-0.2-1.6-1.1l0.4-1.7C14.5,139.9,15.4,138.6,16.6,137.7"/>
				<path class="st3" d="M15.5,146.6l3.6-3c0.7-0.6,1.8,0.1,1.6,1l-0.3,1.8c-0.2,1.5-1,2.8-2.1,3.8l-3.6,3c-0.7,0.6-1.8-0.1-1.6-1 l0.3-1.8C13.6,148.9,14.3,147.6,15.5,146.6"/>
				<path class="st3" d="M15,155.6l3.4-3.3c0.6-0.6,1.8,0,1.7,0.9l-0.2,1.8c-0.1,1.5-0.8,2.9-1.8,3.9l-3.4,3.3 c-0.6,0.6-1.8,0-1.7-0.9l0.2-1.8C13.3,158,13.9,156.6,15,155.6"/>
				<path class="st3" d="M15.2,164.6l3.1-3.5c0.6-0.7,1.8-0.2,1.8,0.8l0,1.8c0,1.5-0.6,2.9-1.6,4l-3.1,3.5c-0.6,0.7-1.8,0.1-1.7-0.8 l0-1.8C13.6,167.1,14.2,165.7,15.2,164.6"/>
				<path class="st3" d="M16,173.6l2.9-3.7c0.6-0.7,1.8-0.3,1.8,0.6l0.1,1.8c0.1,1.5-0.4,3-1.3,4.1l-2.9,3.7 c-0.5,0.7-1.8,0.3-1.8-0.7l-0.1-1.8C14.6,176.2,15.1,174.7,16,173.6"/>
				<path class="st3" d="M17.4,182.4l2.6-3.9c0.5-0.8,1.7-0.4,1.8,0.5l0.2,1.8c0.2,1.5-0.2,3-1,4.2l-2.6,3.9 c-0.5,0.7-1.7,0.4-1.8-0.5l-0.2-1.8C16.2,185.1,16.6,183.7,17.4,182.4"/>
				<path class="st3" d="M19.4,191.2l2.3-4.1c0.5-0.8,1.7-0.5,1.9,0.4l0.3,1.7c0.3,1.5,0,3-0.7,4.3l-2.3,4.1 c-0.5,0.8-1.7,0.5-1.9-0.4l-0.3-1.7C18.4,194,18.7,192.5,19.4,191.2"/>
				<path class="st3" d="M22.1,199.8l2.1-4.2c0.4-0.8,1.7-0.6,1.9,0.3l0.5,1.7c0.4,1.5,0.2,3-0.4,4.3l-2.1,4.2 c-0.4,0.8-1.7,0.6-1.9-0.3l-0.5-1.7C21.3,202.6,21.4,201.1,22.1,199.8"/>
				<path class="st3" d="M25.3,208.2l1.8-4.3c0.3-0.8,1.6-0.8,1.9,0.1l0.6,1.7c0.5,1.4,0.5,3-0.1,4.3l-1.8,4.3 c-0.3,0.8-1.6,0.7-1.9-0.1l-0.6-1.7C24.7,211.1,24.7,209.5,25.3,208.2"/>
				<path class="st3" d="M29.1,216.3l1.4-4.4c0.3-0.9,1.6-0.9,1.9,0l0.7,1.6c0.6,1.4,0.7,2.9,0.2,4.3l-1.4,4.5 c-0.3,0.9-1.6,0.9-1.9,0l-0.7-1.6C28.7,219.2,28.6,217.7,29.1,216.3"/>
				<path class="st3" d="M33.5,224.2l1.1-4.5c0.2-0.9,1.5-1,1.9-0.1l0.8,1.6c0.7,1.4,0.9,2.9,0.5,4.3l-1.1,4.5 c-0.2,0.9-1.5,1-1.9,0.1l-0.8-1.6C33.3,227.1,33.1,225.6,33.5,224.2"/>
				<path class="st3" d="M38.4,231.7l0.8-4.6c0.2-0.9,1.4-1.1,1.9-0.3l0.9,1.5c0.8,1.3,1.1,2.8,0.8,4.2l-0.8,4.6 c-0.2,0.9-1.4,1.1-1.9,0.3l-0.9-1.5C38.4,234.6,38.1,233.1,38.4,231.7"/>
				<path class="st3" d="M43.8,238.9l0.5-4.7c0.1-0.9,1.3-1.2,1.9-0.4l1,1.5c0.9,1.2,1.3,2.7,1.1,4.2l-0.5,4.7 c-0.1,0.9-1.3,1.2-1.9,0.4l-1-1.5C44,241.8,43.6,240.3,43.8,238.9"/>
				<path class="st3" d="M49.7,245.6l0.2-4.7c0-0.9,1.3-1.3,1.8-0.5l1.1,1.4c0.9,1.2,1.4,2.6,1.4,4.1l-0.2,4.7 c0,0.9-1.3,1.3-1.8,0.5l-1.1-1.4C50.1,248.6,49.6,247.1,49.7,245.6"/>
				<path class="st3" d="M56,252l-0.2-4.7c0-0.9,1.2-1.3,1.8-0.7l1.2,1.3c1,1.1,1.6,2.5,1.7,4l0.2,4.7c0,0.9-1.2,1.3-1.8,0.7 l-1.2-1.3C56.7,254.9,56.1,253.5,56,252"/>
				<path class="st3" d="M62.8,257.9l-0.5-4.7c-0.1-0.9,1.1-1.4,1.7-0.8l1.3,1.2c1.1,1,1.8,2.4,1.9,3.9l0.5,4.7 c0.1,0.9-1.1,1.4-1.7,0.8l-1.3-1.2C63.7,260.7,63,259.3,62.8,257.9"/>
				<path class="st3" d="M70,263.3l-0.8-4.6c-0.2-0.9,1-1.5,1.7-0.9l1.4,1.1c1.2,1,1.9,2.3,2.2,3.7l0.8,4.6c0.2,0.9-1,1.5-1.7,0.9 l-1.4-1.1C71.1,266,70.3,264.7,70,263.3"/>
				<path class="st3" d="M77.6,268.2l-1.1-4.5c-0.2-0.9,0.9-1.6,1.6-1l1.5,1c1.2,0.9,2.1,2.1,2.5,3.6l1.1,4.5c0.2,0.9-0.9,1.6-1.6,1 l-1.5-1C78.8,270.8,77.9,269.6,77.6,268.2"/>
				<path class="st3" d="M85.4,272.5l-1.4-4.5c-0.3-0.9,0.7-1.6,1.5-1.1l1.5,0.9c1.3,0.8,2.3,2,2.7,3.4l1.4,4.5 c0.3,0.8-0.8,1.6-1.6,1.1l-1.5-0.9C86.8,275.1,85.9,273.9,85.4,272.5"/>
				<path class="st3" d="M93.6,276.3l-1.8-4.3c-0.3-0.8,0.6-1.7,1.5-1.2l1.6,0.8c1.4,0.7,2.4,1.8,2.9,3.2l1.8,4.3 c0.3,0.8-0.6,1.7-1.5,1.2l-1.6-0.8C95.2,278.8,94.1,277.7,93.6,276.3"/>
				<path class="st3" d="M102,279.5l-2.1-4.2c-0.4-0.8,0.5-1.7,1.4-1.3l1.6,0.7c1.4,0.6,2.5,1.6,3.2,3l2.1,4.2 c0.4,0.8-0.5,1.7-1.4,1.3l-1.6-0.7C103.7,281.9,102.6,280.8,102,279.5"/>
				<path class="st3" d="M110.6,282.1l-2.3-4.1c-0.5-0.8,0.4-1.7,1.3-1.4l1.7,0.6c1.4,0.5,2.6,1.5,3.4,2.7l2.3,4.1 c0.5,0.8-0.4,1.7-1.3,1.4l-1.7-0.6C112.5,284.4,111.3,283.4,110.6,282.1"/>
				<path class="st3" d="M119.3,284.1l-2.6-3.9c-0.5-0.8,0.3-1.8,1.2-1.5l1.7,0.5c1.5,0.4,2.7,1.3,3.5,2.5l2.6,3.9 c0.5,0.7-0.3,1.8-1.2,1.5l-1.7-0.5C121.4,286.2,120.2,285.4,119.3,284.1"/>
				<path class="st3" d="M128.2,285.5l-2.9-3.7c-0.6-0.7,0.2-1.8,1.1-1.6l1.7,0.3c1.5,0.3,2.8,1.1,3.7,2.2l2.9,3.7 c0.5,0.7-0.2,1.8-1.1,1.6l-1.7-0.3C130.4,287.5,129.1,286.7,128.2,285.5"/>
				<path class="st3" d="M137.2,286.3l-3.1-3.5c-0.6-0.7,0-1.8,1-1.7l1.8,0.2c1.5,0.2,2.9,0.9,3.9,2l3.1,3.5c0.6,0.7,0,1.8-1,1.7 l-1.8-0.2C139.5,288.1,138.2,287.4,137.2,286.3"/>
				<path class="st3" d="M146.2,286.5l-3.4-3.3c-0.6-0.6-0.1-1.8,0.8-1.7l1.8,0.1c1.5,0.1,2.9,0.7,4,1.7l3.4,3.3 c0.6,0.6,0.1,1.8-0.8,1.7l-1.8-0.1C148.6,288.1,147.2,287.5,146.2,286.5"/>
				<path class="st3" d="M155.1,286l-3.6-3c-0.7-0.6-0.2-1.8,0.7-1.8l1.8,0c1.5,0,3,0.5,4.1,1.4l3.6,3c0.7,0.6,0.2,1.8-0.7,1.8 l-1.8,0C157.7,287.4,156.3,286.9,155.1,286"/>
				<path class="st3" d="M164.1,284.9l-3.8-2.8c-0.7-0.5-0.3-1.7,0.6-1.8l1.8-0.1c1.5-0.1,3,0.3,4.2,1.1l3.8,2.7 c0.7,0.5,0.3,1.7-0.6,1.8l-1.8,0.2C166.7,286.1,165.3,285.7,164.1,284.9"/>
				<path class="st3" d="M172.9,283.2l-4-2.5c-0.8-0.5-0.5-1.7,0.5-1.8l1.8-0.3c1.5-0.2,3,0.1,4.2,0.8l4,2.5 c0.8,0.5,0.5,1.7-0.5,1.9l-1.8,0.3C175.6,284.2,174.1,283.9,172.9,283.2"/>
				<path class="st3" d="M181.6,280.8l-4.1-2.2c-0.8-0.4-0.6-1.7,0.3-1.9l1.7-0.4c1.5-0.3,3-0.1,4.3,0.5l4.1,2.2 c0.8,0.4,0.6,1.7-0.3,1.9l-1.7,0.4C184.4,281.7,182.9,281.5,181.6,280.8"/>
				<path class="st3" d="M190.1,277.9l-4.3-1.9c-0.8-0.4-0.7-1.6,0.2-1.9l1.7-0.5c1.4-0.4,3-0.4,4.3,0.2l4.3,1.9 c0.8,0.4,0.7,1.6-0.2,1.9l-1.7,0.5C192.9,278.6,191.4,278.5,190.1,277.9"/>
				<path class="st3" d="M198.3,274.4l-4.4-1.6c-0.8-0.3-0.8-1.6,0.1-1.9l1.7-0.6c1.4-0.5,2.9-0.6,4.3-0.1l4.4,1.6 c0.8,0.3,0.8,1.6-0.1,1.9l-1.7,0.6C201.2,274.8,199.7,274.9,198.3,274.4"/>
				<path class="st3" d="M206.3,270.3l-4.5-1.3c-0.9-0.2-0.9-1.5-0.1-1.9l1.6-0.7c1.4-0.6,2.9-0.8,4.3-0.4l4.5,1.3 c0.9,0.2,0.9,1.5,0.1,1.9l-1.6,0.7C209.3,270.6,207.8,270.7,206.3,270.3"/>
				<path class="st3" d="M214,265.6l-4.6-1c-0.9-0.2-1-1.5-0.2-1.9l1.6-0.9c1.3-0.7,2.8-1,4.3-0.7l4.6,1c0.9,0.2,1,1.5,0.2,1.9 l-1.6,0.9C217,265.7,215.5,265.9,214,265.6"/>
				<path class="st3" d="M221.4,260.5l-4.6-0.7c-0.9-0.1-1.1-1.4-0.3-1.9l1.5-1c1.3-0.8,2.8-1.2,4.2-1l4.6,0.7 c0.9,0.1,1.1,1.4,0.3,1.9l-1.5,1C224.3,260.3,222.9,260.7,221.4,260.5"/>
				<path class="st3" d="M228.4,254.8l-4.7-0.3c-0.9-0.1-1.2-1.3-0.5-1.9l1.4-1.1c1.2-0.9,2.7-1.3,4.1-1.2l4.7,0.3 c0.9,0.1,1.2,1.3,0.5,1.9l-1.4,1.1C231.3,254.5,229.8,254.9,228.4,254.8"/>
			</g>
		</g>
		<polygon class="st4" points="131.7,56.4 139.2,51 136.3,42.2 143.7,47.7 151.2,42.2 148.3,50.9 155.8,56.4 146.6,56.3 143.8,65.1     141,56.4   "/>
		<polygon class="st4" points="93.9,68.7 98.7,60.9 92.7,53.9 101.6,56.1 106.4,48.2 107.1,57.3 116.1,59.5 107.6,62.9 108.4,72.2     102.4,65.2   "/>
		<polygon class="st4" points="63.6,94.6 65.1,85.5 56.8,81.3 65.9,79.9 67.3,70.8 71.5,79 80.6,77.5 74.1,84 78.3,92.2 70.1,88  "/>
		<polygon class="st4" points="45.5,130.1 43.4,121.1 34.2,120.4 42.1,115.7 39.9,106.7 46.8,112.7 54.7,107.8 51.2,116.3     58.2,122.3 49.1,121.5   "/>
		<polygon class="st4" points="42.4,169.8 37.1,162.3 28.3,165.2 33.7,157.8 28.2,150.3 37,153.2 42.4,145.7 42.4,154.9 51.2,157.7     42.4,160.5   "/>
		<polygon class="st4" points="54.8,207.7 47,202.8 39.9,208.8 42.1,199.9 34.2,195.1 43.4,194.4 45.5,185.4 49,193.9 58.2,193.2     51.2,199.1   "/>
		<polygon class="st4" points="80.6,237.9 71.6,236.4 67.4,244.7 66,235.6 56.8,234.2 65,230.1 63.6,220.9 70,227.4 78.3,223.2     74.1,231.4   "/>
		<polygon class="st4" points="116.1,256 107.2,258.1 106.5,267.3 101.7,259.5 92.7,261.6 98.7,254.7 93.9,246.8 102.3,250.4     108.3,243.3 107.6,252.5   "/>
		<polygon class="st4" points="155.8,259.1 148.4,264.5 151.3,273.3 143.8,267.8 136.4,273.3 139.2,264.6 131.7,259.1 140.9,259.2     143.8,250.4 146.6,259.1   "/>
		<polygon class="st4" points="193.7,246.8 188.9,254.6 194.9,261.6 186,259.4 181.1,267.3 180.5,258.2 171.5,256 180,252.5     179.2,243.3 185.1,250.3   "/>
		<polygon class="st4" points="224,220.9 222.5,230 230.7,234.1 221.7,235.5 220.2,244.7 216.1,236.5 207,238 213.5,231.5     209.3,223.2 217.4,227.5   "/>
		<polygon class="st4" points="242,185.4 244.1,194.3 253.4,195 245.5,199.8 247.7,208.8 240.7,202.8 232.8,207.7 236.4,199.2     229.3,193.2 238.5,194   "/>
		<polygon class="st4" points="245.1,145.7 250.5,153.2 259.3,150.3 253.9,157.7 259.3,165.2 250.6,162.3 245.2,169.8 245.2,160.6     236.4,157.8 245.1,155   "/>
		<polygon class="st4" points="232.8,107.8 240.6,112.7 247.6,106.6 245.5,115.6 253.4,120.4 244.2,121.1 242.1,130.1 238.6,121.6     229.4,122.3 236.4,116.4   "/>
		<polygon class="st4" points="206.9,77.6 216,79 220.2,70.8 221.6,79.9 230.7,81.3 222.5,85.4 224,94.6 217.5,88 209.3,92.3     213.5,84.1   "/>
		<polygon class="st4" points="171.4,59.5 180.4,57.4 181.1,48.2 185.8,56 194.9,53.8 188.9,60.8 193.7,68.7 185.2,65.1 179.2,72.2     180,63   "/>
	</g>
	<path class="st3" d="M143.8,245.1c-48.2,0-87.4-39.2-87.4-87.4c0-48.2,39.2-87.4,87.4-87.4s87.4,39.2,87.4,87.4   C231.2,205.9,192,245.1,143.8,245.1 M143.8,72.9c-46.8,0-84.8,38.1-84.8,84.8c0,46.8,38.1,84.8,84.8,84.8   c46.8,0,84.8-38.1,84.8-84.8C228.6,111,190.6,72.9,143.8,72.9"/>
	<g>
		<g>
			<polygon class="st4" points="125.6,101.4 143.6,83.5 161.6,101.5 137,126.1 132.4,121.6 152.4,101.5 143.6,92.6 134.9,101.5 141.9,108.7 137.4,113.4 125.6,101.4    "/>
			<polygon class="st4" points="98.4,128.9 116.5,110.8 141.2,135.9 136.6,140.4 116.4,119.9 107.6,128.9 114.7,136.1 110.1,140.8 98.4,128.9    "/>
			<polygon class="st4" points="171.2,110.8 189.2,128.9 164.3,153.8 159.7,149.2 180.2,128.8 171.2,120 164.1,127.1 159.4,122.6 171.2,110.8    "/>
			<polygon class="st4" points="116.3,173.5 98.2,155.4 123.2,130.6 127.7,135.2 107.3,155.5 116.3,164.4 123.4,157.2 128,161.8 116.3,173.5    "/>
			<polygon class="st4" points="188.7,155.5 170.7,173.6 146,148.6 150.6,144.1 170.8,164.6 179.6,155.5 172.5,148.4 177.1,143.7 188.7,155.5    "/>
			<polygon class="st4" points="133.4,148.9 150.6,131.6 155.1,136.2 138,153.5 133.4,148.9    "/>
			<polygon class="st4" points="163.4,139.1 146.2,121.7 150.7,117.2 168,134.5 163.4,139.1    "/>
			<polygon class="st4" points="119.7,148.3 124.4,143.9 142.4,162 142.4,201.4 136.1,207.7 131.5,203.1 135.9,198.7 135.9,164.8 119.7,148.3    "/>
			<polygon class="st4" points="150.9,157.5 155.5,162 151.8,165.8 151.8,199.2 171.3,218.7 180.2,209.7 171.3,200.9 164.9,207.5 160.3,202.8 171.4,191.8 189.3,209.8 171.4,227.8 145.4,201.9 145.4,163 150.9,157.5    "/>
			<polygon class="st4" points="98.4,209.8 116.4,191.8 143.9,219.3 151.4,211.7 155.9,216.4 143.9,228.5 116.3,200.7 107.6,209.7 116.5,218.7 123.4,211.7 127.8,216.5 116.4,227.9 98.4,209.8    "/>
		</g>
	</g>
</g>
</svg>